<svg width="14" height="26" viewBox="0 0 14 26" fill="none" xmlns="http://www.w3.org/2000/svg">
<path d="M0.62176 0.684038C0.424665 0.89946 0.268297 1.15534 0.161607 1.43703C0.0549171 1.71872 0 2.02069 0 2.32566C0 2.63063 0.0549171 2.9326 0.161607 3.21429C0.268297 3.49598 0.424665 3.75186 0.62176 3.96728L8.87095 13.002L0.62176 22.0368C0.22423 22.4722 0.000900249 23.0627 0.000900249 23.6784C0.000900249 24.2941 0.22423 24.8846 0.62176 25.32C1.01929 25.7554 1.55845 26 2.12065 26C2.68284 26 3.222 25.7554 3.61953 25.32L13.3782 14.632C13.5753 14.4166 13.7317 14.1607 13.8384 13.879C13.9451 13.5973 14 13.2954 14 12.9904C14 12.6854 13.9451 12.3834 13.8384 12.1018C13.7317 11.8201 13.5753 11.5642 13.3782 11.3488L3.61953 0.660752C2.81162 -0.224094 1.45093 -0.224094 0.62176 0.684038Z" fill="white"/>
</svg>
