<svg width="24" height="28" viewBox="0 0 24 28" fill="none" xmlns="http://www.w3.org/2000/svg">
<path d="M0 7V4.2H2.66667V2.8C2.66667 2.05739 2.94762 1.3452 3.44772 0.820101C3.94781 0.294999 4.62609 0 5.33333 0H13.3333V9.8L16.6667 7.7L20 9.8V0H21.3333C22.7333 0 24 1.33 24 2.8V25.2C24 26.67 22.7333 28 21.3333 28H5.33333C3.93333 28 2.66667 26.67 2.66667 25.2V23.8H0V21H2.66667V15.4H0V12.6H2.66667V7H0ZM5.33333 12.6H2.66667V15.4H5.33333V12.6ZM5.33333 7V4.2H2.66667V7H5.33333ZM5.33333 23.8V21H2.66667V23.8H5.33333Z" fill="white"/>
</svg>
