<svg width="37" height="33" viewBox="0 0 37 33" fill="none" xmlns="http://www.w3.org/2000/svg">
<path d="M18.5 33C18.0683 33 17.6293 32.9222 17.1828 32.7666C16.7363 32.611 16.3429 32.3621 16.0025 32.0198L12.8113 29.0792C9.54292 26.0608 6.59032 23.0661 3.95345 20.095C1.31658 17.1239 -0.00123247 13.8485 8.6489e-07 10.2687C8.6489e-07 7.3437 0.971251 4.90099 2.91375 2.94059C4.85625 0.980198 7.27667 0 10.175 0C11.8092 0 13.3508 0.349759 14.8 1.04928C16.2492 1.7488 17.4825 2.70597 18.5 3.92079C19.5175 2.70721 20.7508 1.75066 22.2 1.05115C23.6492 0.351627 25.1908 0.0012447 26.825 0C29.7233 0 32.1437 0.980198 34.0862 2.94059C36.0287 4.90099 37 7.3437 37 10.2687C37 13.8472 35.6896 17.1301 33.0688 20.1174C30.4479 23.1047 27.4725 26.1075 24.1425 29.1259L20.9975 32.0198C20.6583 32.3621 20.2655 32.611 19.8191 32.7666C19.3726 32.9222 18.9329 33 18.5 33ZM16.7425 7.65488C15.8483 6.37907 14.8925 5.40634 13.875 4.73669C12.8575 4.06704 11.6242 3.73284 10.175 3.73409C8.325 3.73409 6.78333 4.35644 5.55 5.60113C4.31667 6.84583 3.7 8.4017 3.7 10.2687C3.7 11.8868 4.27042 13.6064 5.41125 15.4274C6.55208 17.2484 7.91677 19.014 9.5053 20.7242C11.0938 22.4344 12.728 24.0369 14.4078 25.5318C16.0876 27.0267 17.4517 28.2558 18.5 29.2192C19.5483 28.2546 20.913 27.0255 22.5941 25.5318C24.2751 24.0382 25.9093 22.4356 27.4966 20.7242C29.0839 19.0127 30.4479 17.2471 31.5888 15.4274C32.7296 13.6076 33.3 11.8881 33.3 10.2687C33.3 8.4017 32.6833 6.84583 31.45 5.60113C30.2167 4.35644 28.675 3.73409 26.825 3.73409C25.3758 3.73409 24.1425 4.06891 23.125 4.73856C22.1075 5.4082 21.1517 6.38031 20.2575 7.65488C20.0417 7.96605 19.7796 8.19943 19.4712 8.35502C19.1629 8.51061 18.8392 8.5884 18.5 8.5884C18.1608 8.5884 17.8371 8.51061 17.5288 8.35502C17.2204 8.19943 16.9583 7.96605 16.7425 7.65488Z" fill="#C4C4C4"/>
</svg>
