<svg width="26" height="30" viewBox="0 0 26 30" fill="none" xmlns="http://www.w3.org/2000/svg">
<path d="M3.43184 1.9278C3.36962 2.98457 3.52214 4.04304 3.87989 5.03731C4.23765 6.03159 4.79298 6.9404 5.51133 7.70716C4.11527 8.1139 2.86538 8.9236 1.91331 10.038C0.961234 11.1524 0.347904 12.5237 0.14773 13.9854C-0.33497 17.4931 0.373185 21.0632 2.15542 24.1071L2.66833 24.9857L2.73134 25.0795L4.80644 27.9178C5.24596 28.5193 5.80923 29.0163 6.45703 29.3741C7.10483 29.7319 7.82159 29.9419 8.55742 29.9896C9.29324 30.0372 10.0304 29.9213 10.7177 29.6499C11.4049 29.3785 12.0257 28.9582 12.5368 28.4181C12.5965 28.355 12.6682 28.3047 12.7475 28.2704C12.8268 28.2361 12.9122 28.2184 12.9984 28.2184C13.0846 28.2184 13.1699 28.2361 13.2492 28.2704C13.3286 28.3047 13.4003 28.355 13.46 28.4181C13.9711 28.9582 14.5919 29.3785 15.2791 29.6499C15.9663 29.9213 16.7035 30.0372 17.4394 29.9896C18.1752 29.9419 18.8919 29.7319 19.5397 29.3741C20.1875 29.0163 20.7508 28.5193 21.1903 27.9178L23.2654 25.078L23.327 24.9842L23.8414 24.1056C25.6244 21.0631 26.3341 17.4941 25.8534 13.9869C25.7116 12.9534 25.3624 11.9606 24.8277 11.0698C24.2929 10.179 23.5839 9.40922 22.7445 8.80813C21.9052 8.20704 20.9533 7.78741 19.9479 7.57524C18.9425 7.36306 17.9049 7.36286 16.8995 7.57463L14.1136 8.16135H14.1092C14.1532 6.99982 14.332 5.74894 14.6822 4.67974C15.1072 3.38716 15.6963 2.60983 16.3528 2.33285C16.622 2.21871 16.8355 2.0006 16.9464 1.7265C17.0573 1.4524 17.0565 1.14476 16.9441 0.871259C16.8318 0.59776 16.6172 0.380804 16.3474 0.268119C16.0777 0.155435 15.7749 0.156251 15.5058 0.27039C13.9641 0.924123 13.0878 2.47432 12.5968 3.97239L12.5294 4.18385C12.1689 3.475 11.7028 2.82702 11.1475 2.26286C10.3875 1.48961 9.47456 0.889274 8.46904 0.50162C7.46352 0.113967 6.38842 -0.0521554 5.31496 0.0142584C4.82507 0.0429116 4.36257 0.253275 4.01519 0.605444C3.66781 0.957613 3.45971 1.42709 3.43037 1.92483M7.71832 13.5625C7.2098 13.6652 6.74378 14.0286 6.45216 14.721C6.15467 15.4269 6.04915 16.4737 6.37009 17.7797C6.43607 18.0653 6.38879 18.3659 6.23848 18.6164C6.08818 18.8668 5.84691 19.0472 5.56682 19.1184C5.28673 19.1896 4.99031 19.1459 4.74164 18.9969C4.49296 18.8478 4.31199 18.6053 4.23784 18.3218C3.82751 16.6509 3.90518 15.0903 4.43128 13.8409C4.96324 12.5796 5.96269 11.64 7.28747 11.3719C7.43104 11.3375 7.57997 11.3328 7.72538 11.3581C7.87078 11.3833 8.00969 11.4381 8.13382 11.5191C8.25796 11.6001 8.36477 11.7057 8.44791 11.8295C8.53105 11.9533 8.5888 12.0929 8.61773 12.2399C8.64667 12.3869 8.64618 12.5383 8.61631 12.6851C8.58644 12.8319 8.52779 12.9711 8.44386 13.0943C8.35993 13.2176 8.25244 13.3225 8.12779 13.4026C8.00314 13.4828 7.86388 13.5381 7.71832 13.5625Z" fill="#717171"/>
</svg>
