<svg width="28" height="28" viewBox="0 0 28 28" fill="none" xmlns="http://www.w3.org/2000/svg">
<path fill-rule="evenodd" clip-rule="evenodd" d="M0 14C0 6.2678 6.2678 0 14 0C21.7322 0 28 6.2678 28 14C28 21.7322 21.7322 28 14 28C6.2678 28 0 21.7322 0 14ZM14.9898 8.8102C14.8595 8.67986 14.7047 8.57652 14.5344 8.50613C14.3641 8.43574 14.1815 8.39967 13.9972 8.4C13.6269 8.40082 13.272 8.54832 13.0102 8.8102C12.7462 9.06522 12.3925 9.20633 12.0254 9.20314C11.6584 9.19995 11.3072 9.05272 11.0477 8.79315C10.7881 8.53358 10.6408 8.18244 10.6377 7.81536C10.6345 7.44829 10.7756 7.09464 11.0306 6.8306C11.8161 6.04409 12.8814 5.60106 13.993 5.5986C14.5458 5.59798 15.0933 5.70649 15.604 5.9179C16.1148 6.12932 16.5788 6.43948 16.9694 6.8306C17.4734 7.33124 17.8418 7.95174 18.0402 8.63385C18.2386 9.31596 18.2603 10.0373 18.1034 10.7301C17.9465 11.4229 17.6161 12.0645 17.1432 12.5946C16.6703 13.1247 16.0705 13.5259 15.4 13.7606L15.4014 13.9944C15.4029 14.3657 15.2568 14.7224 14.9953 14.986C14.7338 15.2496 14.3783 15.3985 14.007 15.4C13.6357 15.4015 13.279 15.2554 13.0154 14.9939C12.7518 14.7324 12.6029 14.3769 12.6014 14.0056L12.5958 12.6056C12.5951 12.421 12.6308 12.2382 12.701 12.0675C12.7712 11.8968 12.8745 11.7417 13.0049 11.611C13.1352 11.4804 13.2901 11.3768 13.4607 11.3063C13.6312 11.2358 13.814 11.1996 13.9986 11.2C14.1831 11.2005 14.366 11.1645 14.5366 11.0941C14.7071 11.0237 14.8621 10.9203 14.9926 10.7898C15.2541 10.5269 15.4007 10.1709 15.4 9.8C15.3999 9.42873 15.2524 9.07269 14.9898 8.8102ZM11.9 19.6C11.9 19.043 12.1212 18.5089 12.5151 18.1151C12.9089 17.7212 13.443 17.5 14 17.5H14.014C14.571 17.5 15.1051 17.7212 15.4989 18.1151C15.8928 18.5089 16.114 19.043 16.114 19.6V19.614C16.114 20.171 15.8928 20.7051 15.4989 21.0989C15.1051 21.4927 14.571 21.714 14.014 21.714H14C13.443 21.714 12.9089 21.4927 12.5151 21.0989C12.1212 20.7051 11.9 20.171 11.9 19.614V19.6Z" fill="#717171"/>
</svg>
