<svg width="40" height="33" viewBox="0 0 40 33" fill="none" xmlns="http://www.w3.org/2000/svg">
<path d="M13.2898 2.30596C13.2898 1.71031 13.5239 1.13905 13.9406 0.717862C14.3574 0.296673 14.9226 0.0600514 15.512 0.0600514H34.8148C35.4042 0.0600514 35.9694 0.296673 36.3862 0.717862C36.8029 1.13905 37.037 1.71031 37.037 2.30596C37.037 2.90161 36.8029 3.47286 36.3862 3.89405C35.9694 4.31524 35.4042 4.55186 34.8148 4.55186H15.512C14.9226 4.55186 14.3574 4.31524 13.9406 3.89405C13.5239 3.47286 13.2898 2.90161 13.2898 2.30596ZM15.512 16.53H34.8148C35.4042 16.53 35.9694 16.2934 36.3862 15.8722C36.8029 15.451 37.037 14.8798 37.037 14.2841C37.037 13.6885 36.8029 13.1172 36.3862 12.696C35.9694 12.2748 35.4042 12.0382 34.8148 12.0382H15.512C14.9226 12.0382 14.3574 12.2748 13.9406 12.696C13.5239 13.1172 13.2898 13.6885 13.2898 14.2841C13.2898 14.8798 13.5239 15.451 13.9406 15.8722C14.3574 16.2934 14.9226 16.53 15.512 16.53ZM21.4815 24.0164H2.22222C1.63285 24.0164 1.06762 24.253 0.650874 24.6742C0.234126 25.0954 0 25.6666 0 26.2623C0 26.8579 0.234126 27.4292 0.650874 27.8504C1.06762 28.2716 1.63285 28.5082 2.22222 28.5082H21.4815C22.0709 28.5082 22.6361 28.2716 23.0528 27.8504C23.4696 27.4292 23.7037 26.8579 23.7037 26.2623C23.7037 25.6666 23.4696 25.0954 23.0528 24.6742C22.6361 24.253 22.0709 24.0164 21.4815 24.0164ZM37.7778 24.0164H35.5556V21.7705C35.5556 21.1748 35.3214 20.6036 34.9047 20.1824C34.4879 19.7612 33.9227 19.5246 33.3333 19.5246C32.744 19.5246 32.1787 19.7612 31.762 20.1824C31.3452 20.6036 31.1111 21.1748 31.1111 21.7705V24.0164H28.8889C28.2995 24.0164 27.7343 24.253 27.3175 24.6742C26.9008 25.0954 26.6667 25.6666 26.6667 26.2623C26.6667 26.8579 26.9008 27.4292 27.3175 27.8504C27.7343 28.2716 28.2995 28.5082 28.8889 28.5082H31.1111V30.7541C31.1111 31.3497 31.3452 31.921 31.762 32.3422C32.1787 32.7634 32.744 33 33.3333 33C33.9227 33 34.4879 32.7634 34.9047 32.3422C35.3214 31.921 35.5556 31.3497 35.5556 30.7541V28.5082H37.7778C38.3671 28.5082 38.9324 28.2716 39.3491 27.8504C39.7659 27.4292 40 26.8579 40 26.2623C40 25.6666 39.7659 25.0954 39.3491 24.6742C38.9324 24.253 38.3671 24.0164 37.7778 24.0164Z" fill="#C4C4C4"/>
<path d="M8.53733 0V16.3979H5.10695V3.29079H5.01188L1.2963 5.64479V2.57018L5.31293 0H8.53733Z" fill="#C4C4C4"/>
</svg>
