<svg width="40" height="33" viewBox="0 0 40 33" fill="none" xmlns="http://www.w3.org/2000/svg">
<path d="M13.3393 2.51307C13.3393 1.92144 13.573 1.35404 13.9889 0.935695C14.4049 0.517348 14.9691 0.282324 15.5574 0.282324H34.8244C35.4127 0.282324 35.9769 0.517348 36.3929 0.935695C36.8088 1.35404 37.0425 1.92144 37.0425 2.51307C37.0425 3.10471 36.8088 3.67211 36.3929 4.09045C35.9769 4.5088 35.4127 4.74382 34.8244 4.74382H15.5574C14.9691 4.74382 14.4049 4.5088 13.9889 4.09045C13.573 3.67211 13.3393 3.10471 13.3393 2.51307ZM15.5574 16.6412H34.8244C35.4127 16.6412 35.9769 16.4061 36.3929 15.9878C36.8088 15.5694 37.0425 15.002 37.0425 14.4104C37.0425 13.8188 36.8088 13.2514 36.3929 12.833C35.9769 12.4147 35.4127 12.1797 34.8244 12.1797H15.5574C14.9691 12.1797 14.4049 12.4147 13.9889 12.833C13.573 13.2514 13.3393 13.8188 13.3393 14.4104C13.3393 15.002 13.573 15.5694 13.9889 15.9878C14.4049 16.4061 14.9691 16.6412 15.5574 16.6412ZM21.5158 24.077H2.29224C1.70396 24.077 1.13978 24.312 0.723802 24.7304C0.307827 25.1487 0.0741344 25.7161 0.0741344 26.3077C0.0741344 26.8994 0.307827 27.4668 0.723802 27.8851C1.13978 28.3035 1.70396 28.5385 2.29224 28.5385H21.5158C22.1041 28.5385 22.6683 28.3035 23.0842 27.8851C23.5002 27.4668 23.7339 26.8994 23.7339 26.3077C23.7339 25.7161 23.5002 25.1487 23.0842 24.7304C22.6683 24.312 22.1041 24.077 21.5158 24.077ZM37.7819 24.077H35.5638V21.8462C35.5638 21.2546 35.3301 20.6872 34.9141 20.2689C34.4981 19.8505 33.934 19.6155 33.3457 19.6155C32.7574 19.6155 32.1932 19.8505 31.7773 20.2689C31.3613 20.6872 31.1276 21.2546 31.1276 21.8462V24.077H28.9095C28.3212 24.077 27.757 24.312 27.341 24.7304C26.9251 25.1487 26.6914 25.7161 26.6914 26.3077C26.6914 26.8994 26.9251 27.4668 27.341 27.8851C27.757 28.3035 28.3212 28.5385 28.9095 28.5385H31.1276V30.7692C31.1276 31.3609 31.3613 31.9283 31.7773 32.3466C32.1932 32.765 32.7574 33 33.3457 33C33.934 33 34.4981 32.765 34.9141 32.3466C35.3301 31.9283 35.5638 31.3609 35.5638 30.7692V28.5385H37.7819C38.3702 28.5385 38.9344 28.3035 39.3503 27.8851C39.7663 27.4668 40 26.8994 40 26.3077C40 25.7161 39.7663 25.1487 39.3503 24.7304C38.9344 24.312 38.3702 24.077 37.7819 24.077Z" fill="#C4C4C4"/>
<path d="M0.158154 16.5099V14.0287L5.92285 8.66056C6.41313 8.1834 6.82433 7.75395 7.15645 7.37221C7.49384 6.99048 7.74952 6.6167 7.92349 6.25087C8.09746 5.87974 8.18445 5.47946 8.18445 5.05001C8.18445 4.57284 8.07638 4.16195 7.86023 3.81733C7.64409 3.46741 7.34887 3.19966 6.97457 3.0141C6.60028 2.82323 6.1759 2.7278 5.70144 2.7278C5.20589 2.7278 4.7736 2.82853 4.40458 3.03C4.03555 3.23147 3.75088 3.52042 3.55055 3.89685C3.35022 4.27329 3.25006 4.72129 3.25006 5.24087H0C0 4.1752 0.239866 3.25003 0.719599 2.46536C1.19933 1.68068 1.87148 1.07362 2.73606 0.644174C3.60063 0.214725 4.597 0 5.72516 0C6.88495 0 7.8945 0.206772 8.7538 0.620316C9.61837 1.02856 10.2905 1.59585 10.7703 2.32221C11.25 3.04856 11.4899 3.88095 11.4899 4.81938C11.4899 5.43439 11.3686 6.04145 11.1261 6.64056C10.8889 7.23967 10.4645 7.90505 9.85297 8.6367C9.24144 9.36306 8.3795 10.2352 7.26716 11.2532L4.90276 13.5833V13.6947H11.7034V16.5099H0.158154Z" fill="#C4C4C4"/>
</svg>
