<svg width="33" height="37" viewBox="0 0 33 37" fill="none" xmlns="http://www.w3.org/2000/svg">
<path d="M9.79804 16.7307C10.1609 16.6591 10.48 16.4481 10.6853 16.1442C10.8906 15.8402 10.9652 15.4682 10.8927 15.1099C10.8201 14.7516 10.6065 14.4365 10.2986 14.2338C9.9908 14.0311 9.61402 13.9575 9.25119 14.0291C7.57159 14.3596 6.30305 15.5204 5.62786 17.076C4.95826 18.6151 4.85967 20.5398 5.38234 22.6005C5.42316 22.7796 5.49981 22.9488 5.60781 23.0983C5.71581 23.2477 5.85296 23.3743 6.01122 23.4706C6.16947 23.567 6.34564 23.6311 6.52935 23.6593C6.71307 23.6874 6.90063 23.679 7.08101 23.6346C7.2614 23.5902 7.43097 23.5106 7.57976 23.4005C7.72855 23.2904 7.85355 23.1521 7.94743 22.9937C8.04131 22.8352 8.10217 22.6598 8.12642 22.4778C8.15068 22.2958 8.13784 22.1109 8.08868 21.9338C7.67947 20.3213 7.81339 19.032 8.19098 18.1614C8.56298 17.3056 9.15447 16.8593 9.79804 16.7307ZM4.35561 2.37579C4.27612 3.67974 4.46945 4.98588 4.92354 6.21282C5.37763 7.43977 6.08276 8.56123 6.99498 9.50733C5.22305 10.009 3.63664 11.0076 2.42823 12.3821C1.21983 13.7565 0.441362 15.4477 0.187294 17.2505C-0.424934 21.576 0.47387 25.9785 2.73553 29.732L3.38654 30.8156L3.46652 30.9313L6.10031 34.4319C6.65816 35.1738 7.37309 35.7868 8.1953 36.2281C9.01752 36.6694 9.92726 36.9284 10.8612 36.9871C11.7951 37.0459 12.7308 36.9029 13.6031 36.5682C14.4754 36.2335 15.2633 35.7151 15.9119 35.049C15.9878 34.9711 16.0788 34.9092 16.1794 34.8669C16.2801 34.8245 16.3884 34.8027 16.4978 34.8027C16.6073 34.8027 16.7156 34.8245 16.8162 34.8669C16.9169 34.9092 17.0079 34.9711 17.0838 35.049C17.7324 35.7151 18.5203 36.2335 19.3926 36.5682C20.2649 36.9029 21.2006 37.0459 22.1345 36.9871C23.0684 36.9284 23.9782 36.6694 24.8004 36.2281C25.6226 35.7868 26.3375 35.1738 26.8954 34.4319L29.5292 30.9295L29.6073 30.8138L30.2602 29.7302C32.5233 25.9779 33.4241 21.5761 32.814 17.2505C32.6339 15.9759 32.1908 14.7514 31.512 13.6527C30.8333 12.5541 29.9334 11.6047 28.868 10.8634C27.8027 10.122 26.5946 9.60448 25.3185 9.34279C24.0424 9.08111 22.7254 9.08086 21.4492 9.34204L17.9133 10.0657H17.9077C17.9635 8.63311 18.1905 7.09036 18.635 5.77167C19.1744 4.1775 19.9222 3.21879 20.7554 2.87718C21.0971 2.73641 21.368 2.46741 21.5088 2.12935C21.6495 1.79129 21.6485 1.41187 21.506 1.07455C21.3634 0.737237 21.091 0.469658 20.7486 0.33068C20.4062 0.191703 20.022 0.19271 19.6803 0.333482C17.7236 1.13975 16.6113 3.05166 15.9882 4.89929L15.9026 5.16008C15.4451 4.28583 14.8534 3.48665 14.1486 2.79086C13.1841 1.83719 12.0253 1.09677 10.749 0.618665C9.47278 0.140559 8.10822 -0.064325 6.74574 0.0175853C6.12396 0.0529243 5.53693 0.312372 5.09602 0.746714C4.65512 1.18106 4.39099 1.76008 4.35375 2.37395M7.13076 2.75413C8.06414 2.72753 8.99315 2.88978 9.86066 3.2309C10.7282 3.57201 11.5158 4.08478 12.1751 4.73766C12.8364 5.3887 13.3557 6.16643 13.7011 7.02301C14.0466 7.8796 14.2109 8.79692 14.184 9.71854C13.8466 9.72587 13.5092 9.71053 13.174 9.67263L12.0263 9.43754C10.9363 9.11444 9.94447 8.52947 9.13959 7.73501C8.47839 7.08397 7.95908 6.30624 7.61361 5.44966C7.26814 4.59307 7.10382 3.67575 7.13076 2.75413ZM10.981 12.0382L11.3567 12.1153C11.8031 12.2402 12.2558 12.3333 12.7146 12.3945L14.5188 12.7618C15.8255 13.0291 17.1739 13.0291 18.4806 12.7618L22.0184 12.0382C22.9208 11.8535 23.852 11.8537 24.7543 12.0388C25.6566 12.2239 26.5108 12.5898 27.2641 13.1141C28.0173 13.6384 28.6536 14.3097 29.1334 15.0866C29.6133 15.8635 29.9265 16.7294 30.0537 17.6306C30.576 21.3364 29.8038 25.1073 27.8645 28.3215L27.2488 29.3445L24.6578 32.79C24.3416 33.2106 23.9363 33.558 23.4702 33.8081C23.0041 34.0583 22.4884 34.2051 21.959 34.2383C21.4296 34.2715 20.8992 34.1903 20.4048 34.0005C19.9104 33.8106 19.4639 33.5166 19.0963 33.139C18.7603 32.7936 18.3571 32.5189 17.9109 32.3312C17.4647 32.1436 16.9847 32.0469 16.4997 32.0469C16.0147 32.0469 15.5347 32.1436 15.0885 32.3312C14.6423 32.5189 14.2391 32.7936 13.9031 33.139C13.5355 33.5166 13.089 33.8106 12.5946 34.0005C12.1002 34.1903 11.5698 34.2715 11.0404 34.2383C10.511 34.2051 9.99528 34.0583 9.52919 33.8081C9.0631 33.558 8.65784 33.2106 8.34164 32.79L5.75063 29.3445L5.13496 28.3215C3.19622 25.107 2.4247 21.3362 2.94757 17.6306C3.0748 16.7296 3.38797 15.8639 3.86769 15.0871C4.34742 14.3104 4.98349 13.6391 5.73653 13.1149C6.48958 12.5907 7.34358 12.2246 8.24567 12.0394C9.14776 11.8542 10.0788 11.8538 10.981 12.0382Z" fill="#C4C4C4"/>
</svg>
