<svg width="28" height="16" viewBox="0 0 28 16" fill="none" xmlns="http://www.w3.org/2000/svg">
<path d="M26.6 2.82353H1.4C1.0287 2.82353 0.672601 2.67479 0.410051 2.41003C0.1475 2.14528 0 1.78619 0 1.41176C0 1.03734 0.1475 0.678253 0.410051 0.413496C0.672601 0.148739 1.0287 0 1.4 0H26.6C26.9713 0 27.3274 0.148739 27.5899 0.413496C27.8525 0.678253 28 1.03734 28 1.41176C28 1.78619 27.8525 2.14528 27.5899 2.41003C27.3274 2.67479 26.9713 2.82353 26.6 2.82353ZM21.9333 9.41177H6.06667C5.69536 9.41177 5.33927 9.26303 5.07672 8.99827C4.81417 8.73351 4.66667 8.37442 4.66667 8C4.66667 7.62558 4.81417 7.26649 5.07672 7.00173C5.33927 6.73697 5.69536 6.58824 6.06667 6.58824H21.9333C22.3046 6.58824 22.6607 6.73697 22.9233 7.00173C23.1858 7.26649 23.3333 7.62558 23.3333 8C23.3333 8.37442 23.1858 8.73351 22.9233 8.99827C22.6607 9.26303 22.3046 9.41177 21.9333 9.41177ZM16.3333 16H11.6667C11.2954 16 10.9393 15.8513 10.6767 15.5865C10.4142 15.3217 10.2667 14.9627 10.2667 14.5882C10.2667 14.2138 10.4142 13.8547 10.6767 13.59C10.9393 13.3252 11.2954 13.1765 11.6667 13.1765H16.3333C16.7046 13.1765 17.0607 13.3252 17.3233 13.59C17.5858 13.8547 17.7333 14.2138 17.7333 14.5882C17.7333 14.9627 17.5858 15.3217 17.3233 15.5865C17.0607 15.8513 16.7046 16 16.3333 16Z" fill="#C4C4C4"/>
</svg>
