<svg width="41" height="33" viewBox="0 0 41 33" fill="none" xmlns="http://www.w3.org/2000/svg">
<path d="M13.8938 2.51307C13.8938 1.92144 14.1314 1.35404 14.5543 0.935695C14.9772 0.517348 15.5508 0.282324 16.149 0.282324H35.7379C36.3361 0.282324 36.9097 0.517348 37.3326 0.935695C37.7555 1.35404 37.9931 1.92144 37.9931 2.51307C37.9931 3.10471 37.7555 3.67211 37.3326 4.09045C36.9097 4.5088 36.3361 4.74382 35.7379 4.74382H16.149C15.5508 4.74382 14.9772 4.5088 14.5543 4.09045C14.1314 3.67211 13.8938 3.10471 13.8938 2.51307ZM16.149 16.6412H35.7379C36.3361 16.6412 36.9097 16.4061 37.3326 15.9878C37.7555 15.5694 37.9931 15.002 37.9931 14.4104C37.9931 13.8188 37.7555 13.2514 37.3326 12.833C36.9097 12.4147 36.3361 12.1797 35.7379 12.1797H16.149C15.5508 12.1797 14.9772 12.4147 14.5543 12.833C14.1314 13.2514 13.8938 13.8188 13.8938 14.4104C13.8938 15.002 14.1314 15.5694 14.5543 15.9878C14.9772 16.4061 15.5508 16.6412 16.149 16.6412ZM22.207 24.077H2.66218C2.06407 24.077 1.49046 24.312 1.06754 24.7304C0.644612 25.1487 0.407015 25.7161 0.407015 26.3077C0.407015 26.8994 0.644612 27.4668 1.06754 27.8851C1.49046 28.3035 2.06407 28.5385 2.66218 28.5385H22.207C22.8051 28.5385 23.3787 28.3035 23.8016 27.8851C24.2245 27.4668 24.4621 26.8994 24.4621 26.3077C24.4621 25.7161 24.2245 25.1487 23.8016 24.7304C23.3787 24.312 22.8051 24.077 22.207 24.077ZM38.7448 24.077H36.4897V21.8462C36.4897 21.2546 36.2521 20.6872 35.8291 20.2689C35.4062 19.8505 34.8326 19.6155 34.2345 19.6155C33.6364 19.6155 33.0628 19.8505 32.6399 20.2689C32.2169 20.6872 31.9793 21.2546 31.9793 21.8462V24.077H29.7242C29.1261 24.077 28.5525 24.312 28.1295 24.7304C27.7066 25.1487 27.469 25.7161 27.469 26.3077C27.469 26.8994 27.7066 27.4668 28.1295 27.8851C28.5525 28.3035 29.1261 28.5385 29.7242 28.5385H31.9793V30.7692C31.9793 31.3609 32.2169 31.9283 32.6399 32.3466C33.0628 32.765 33.6364 33 34.2345 33C34.8326 33 35.4062 32.765 35.8291 32.3466C36.2521 31.9283 36.4897 31.3609 36.4897 30.7692V28.5385H38.7448C39.3429 28.5385 39.9166 28.3035 40.3395 27.8851C40.7624 27.4668 41 26.8994 41 26.3077C41 25.7161 40.7624 25.1487 40.3395 24.7304C39.9166 24.312 39.3429 24.077 38.7448 24.077Z" fill="#C4C4C4"/>
<path d="M6.24693 16.7326C5.04632 16.7326 3.97702 16.5285 3.03905 16.1203C2.10643 15.7067 1.36945 15.1394 0.8281 14.4184C0.292113 13.692 0.0160796 12.8543 0 11.9053H3.50536C3.5268 12.3029 3.65811 12.6528 3.89931 12.9551C4.14586 13.252 4.47281 13.4826 4.88016 13.6469C5.28751 13.8113 5.74578 13.8935 6.25497 13.8935C6.7856 13.8935 7.25459 13.8007 7.66194 13.6151C8.06929 13.4296 8.3882 13.1724 8.61867 12.8437C8.84915 12.515 8.96439 12.1359 8.96439 11.7065C8.96439 11.2717 8.84111 10.8873 8.59455 10.5533C8.35336 10.214 8.00497 9.94891 7.54938 9.75804C7.09915 9.56718 6.56316 9.47174 5.94142 9.47174H4.40581V6.94276H5.94142C6.46668 6.94276 6.93031 6.85263 7.3323 6.67237C7.73965 6.49211 8.05589 6.24292 8.281 5.92481C8.50612 5.6014 8.61867 5.22497 8.61867 4.79552C8.61867 4.38728 8.51952 4.0294 8.3212 3.72189C8.12825 3.40909 7.85489 3.1652 7.50114 2.99024C7.15275 2.81528 6.7454 2.7278 6.27909 2.7278C5.80742 2.7278 5.37595 2.81263 4.98468 2.98229C4.59341 3.14664 4.27986 3.38258 4.04402 3.69008C3.80819 3.99759 3.68223 4.35812 3.66615 4.77166H0.329632C0.345712 3.83323 0.616385 3.00615 1.14165 2.2904C1.66692 1.57465 2.37442 1.0153 3.26416 0.612363C4.15926 0.204121 5.1696 0 6.29517 0C7.43146 0 8.42572 0.204121 9.27794 0.612363C10.1302 1.0206 10.7921 1.572 11.2638 2.26654C11.7408 2.95578 11.9766 3.72985 11.9713 4.58875C11.9766 5.50066 11.6899 6.26148 11.111 6.87119C10.5375 7.4809 9.78981 7.86794 8.86791 8.03229V8.15954C10.0792 8.31329 11.0011 8.72948 11.6336 9.40812C12.2714 10.0815 12.5877 10.9244 12.5823 11.9371C12.5877 12.8649 12.317 13.6894 11.7703 14.4104C11.2289 15.1315 10.4812 15.6988 9.52717 16.1123C8.57311 16.5258 7.4797 16.7326 6.24693 16.7326Z" fill="#C4C4C4"/>
</svg>
