<svg width="34" height="31" viewBox="0 0 34 31" fill="none" xmlns="http://www.w3.org/2000/svg">
<path fill-rule="evenodd" clip-rule="evenodd" d="M9.65443 2.44736C9.65443 3.799 8.55815 4.89473 7.20585 4.89473C5.85355 4.89473 4.75728 3.799 4.75728 2.44736C4.75728 1.09573 5.85355 0 7.20585 0C8.55815 0 9.65443 1.09573 9.65443 2.44736ZM7.2057 8.29787L14.4114 15.5L12.1028 17.8074L8.83775 14.5439L8.83806 22.0263C8.83806 24.7296 11.0306 26.921 13.7352 26.921H20.2648V30.1842H13.7352C9.22753 30.1842 5.57334 26.5318 5.57334 22.0263L5.57296 14.5439L2.30855 17.8074L0 15.5L7.2057 8.29787ZM20.2648 0.815814C24.7725 0.815814 28.4267 4.4682 28.4267 8.97372L28.4264 16.4529L31.6915 13.1926L34 15.5L26.7943 22.7021L19.5886 15.5L21.8972 13.1926C22.9848 14.2799 24.0729 15.3666 25.1616 16.4529L25.1619 8.97372C25.1619 6.27038 22.9694 4.07899 20.2648 4.07899H13.7352V0.815814H20.2648ZM26.7945 31C28.1468 31 29.243 29.9043 29.243 28.5526C29.243 27.201 28.1468 26.1053 26.7945 26.1053C25.4422 26.1053 24.3459 27.201 24.3459 28.5526C24.3459 29.9043 25.4422 31 26.7945 31Z" fill="white"/>
</svg>
